<svg width="120" height="120" viewBox="0 0 120 120" fill="none" xmlns="http://www.w3.org/2000/svg">
<rect x="10" y="10" width="100" height="100" fill="#F9AB00"/>
<rect x="10" y="110" width="9.99999" height="100" transform="rotate(180 10 110)" fill="#DF7D00"/>
<rect x="10" y="120" width="10" height="100" transform="rotate(-90 10 120)" fill="#212121"/>
<rect x="20" y="100" width="10" height="10" transform="rotate(-90 20 100)" fill="#212121"/>
<rect width="10" height="10" transform="matrix(4.37114e-08 -1 -1 -4.37114e-08 100 100)" fill="#212121"/>
<rect x="20" y="20" width="10" height="10" fill="#212121"/>
<rect width="10" height="10" transform="matrix(-1 0 0 1 100 20)" fill="#212121"/>
<rect width="10" height="100" transform="matrix(4.37114e-08 -1 -1 -4.37114e-08 110 10)" fill="#DF7D00"/>
<rect x="110" y="10" width="10" height="100" fill="#212121"/>
<path fill-rule="evenodd" clip-rule="evenodd" d="M35 38H40H45H50V43H45H40V48H35V43V38ZM45 53H40V48H45V53ZM50 58H45V53H50V58ZM55 63H50V58H55V63ZM60 68V63H55V68H50V73H45V78H40L40 83H45V78H50V73H55V68H60ZM65 73H60V68H65V73ZM70 78H65V73H70V78ZM80 73H85V78V83H80H75H70V78H75H80V73ZM75 68H80V73H75V68ZM70 63H75V68H70V63ZM65 58V63H70V58H65ZM60 53V58H65V53H70V48H75V43H80V38H75V43H70V48H65V53H60ZM55 48H60V53H55V48ZM55 48V43H50V48H55Z" fill="#FCFCFC"/>
</svg>
