<svg width="380" height="120" viewBox="0 0 380 120" fill="none" xmlns="http://www.w3.org/2000/svg">
<rect x="10" y="10" width="360" height="100" fill="#F9AB00"/>
<rect x="10" y="110" width="9.99999" height="100" transform="rotate(180 10 110)" fill="#DF7D00"/>
<rect x="10" y="120" width="9.99998" height="360" transform="rotate(-90 10 120)" fill="#212121"/>
<rect x="20" y="100" width="10" height="10" transform="rotate(-90 20 100)" fill="#212121"/>
<rect width="10" height="10" transform="matrix(4.37114e-08 -1 -1 -4.37114e-08 360 100)" fill="#212121"/>
<rect x="20" y="20" width="10" height="10" fill="#212121"/>
<rect width="10" height="10" transform="matrix(-1 0 0 1 360 20)" fill="#212121"/>
<rect x="10" y="10" width="9.99998" height="360" transform="rotate(-90 10 10)" fill="#DF7D00"/>
<rect x="370" y="10" width="10" height="100" fill="#212121"/>
<path fill-rule="evenodd" clip-rule="evenodd" d="M307 42H302V47H307H312H312H317H322H327H327V52V57V62V67H327V72H332V67H332V62V57V52V47V42H331H327H327H322H317H312H312H307ZM302 52H297V57V62V67V72V77H302H307H312H317H322V72V67V62V57V52H317H312H307H302ZM312 57H317V62V67V72H312H307H302L302 67L302 62L302 57H307H312Z" fill="#FCFCFC"/>
<path d="M48 69V51H54V45H72V51H78V57H72V51H54V69H72V63H78V69H72V75H54V69H48Z" fill="white"/>
<path d="M84 69V51H90V45H108V51H114V69H108V75H90V69H84ZM90 68.7656H108V51.2344H90V68.7656Z" fill="white"/>
<path d="M120 75V45H144V51H150V57H144V63H126V75H120ZM126 57H143.766V51H126V57Z" fill="white"/>
<path d="M156 51V45H162V51H168V57H174V51H180V45H186V51H180V57H174V75H168V57H162V51H156Z" fill="white"/>
<path d="M210 69V51H216V45H234V51H240V57H234V51H216V69H234V63H240V69H234V75H216V69H210Z" fill="white"/>
<path d="M246 75V51H252V45H270V51H276V75H270V63H252V75H246ZM252 57H270V51.2344H252V57Z" fill="white"/>
</svg>
