<svg width="420" height="120" viewBox="0 0 420 120" fill="none" xmlns="http://www.w3.org/2000/svg">
<rect x="10" y="10" width="400" height="100" fill="#F9AB00"/>
<rect x="10" y="110" width="9.99999" height="100" transform="rotate(180 10 110)" fill="#DF7D00"/>
<rect x="10" y="120" width="9.99998" height="400" transform="rotate(-90 10 120)" fill="#212121"/>
<rect x="20" y="100" width="10" height="10" transform="rotate(-90 20 100)" fill="#212121"/>
<rect width="10" height="10" transform="matrix(4.37114e-08 -1 -1 -4.37114e-08 400 100)" fill="#212121"/>
<rect x="20" y="20" width="10" height="10" fill="#212121"/>
<rect width="10" height="10" transform="matrix(-1 0 0 1 400 20)" fill="#212121"/>
<rect x="10" y="10" width="9.99998" height="400" transform="rotate(-90 10 10)" fill="#DF7D00"/>
<rect x="410" y="10" width="10" height="100" fill="#212121"/>
<path d="M32 68V50H38V44H56V50H62V56H56V50H38V68H56V62H62V68H56V74H38V68H32Z" fill="white"/>
<path d="M68 68V50H74V44H92V50H98V68H92V74H74V68H68ZM74 67.7656H92V50.2344H74V67.7656Z" fill="white"/>
<path d="M104 74V44H128V50H134V56H128V62H110V74H104ZM110 56H127.766V50H110V56Z" fill="white"/>
<path d="M140 50V44H146V50H152V56H158V50H164V44H170V50H164V56H158V74H152V56H146V50H140Z" fill="white"/>
<path d="M194 68V50H200V44H218V50H224V56H218V50H200V68H218V62H224V68H218V74H200V68H194Z" fill="white"/>
<path d="M230 68V50H236V44H254V50H260V68H254V74H236V68H230ZM236 67.7656H254V50.2344H236V67.7656Z" fill="white"/>
<path d="M266 74V44H290V50H296V68H290V74H266ZM272 68H289.766V50H272V68Z" fill="white"/>
<path d="M302 74V44H332V50H308V56H326V62H308V68H332V74H302Z" fill="white"/>
<path fill-rule="evenodd" clip-rule="evenodd" d="M360 42H355V47H360H365H365H370H375H380H380V52V57V62V67H380V72H385V67H385V62V57V52V47V42H384H380H380H375H370H365H365H360ZM355 52H350V57V62V67V72V77H355H360H365H370H375V72V67V62V57V52H370H365H360H355ZM365 57H370V62V67V72H365H360H355L355 67L355 62L355 57H360H365Z" fill="#FCFCFC"/>
</svg>
