<svg width="800" height="666" viewBox="0 0 800 666" fill="none" xmlns="http://www.w3.org/2000/svg">
<rect x="10" y="10" width="780" height="100" fill="#F9AB00"/>
<rect x="10" y="110" width="9.99999" height="100" transform="rotate(180 10 110)" fill="#DF7D00"/>
<rect x="10" y="120" width="10" height="780" transform="rotate(-90 10 120)" fill="#212121"/>
<rect x="20" y="100" width="10" height="10" transform="rotate(-90 20 100)" fill="#212121"/>
<rect width="10" height="10" transform="matrix(4.37114e-08 -1 -1 -4.37114e-08 780 100)" fill="#212121"/>
<rect x="20" y="20" width="10" height="10" fill="#212121"/>
<rect width="10" height="10" transform="matrix(-1 0 0 1 780 20)" fill="#212121"/>
<rect width="10" height="780" transform="matrix(3.40949e-07 -1 -1 -5.60402e-09 790 10)" fill="#DF7D00"/>
<rect x="790" y="10" width="10" height="100" fill="#212121"/>
<rect x="10" y="120" width="780" height="536" fill="#747474"/>
<rect x="10" y="656" width="9.99999" height="536" transform="rotate(180 10 656)" fill="#212121"/>
<rect x="10" y="666" width="10" height="780" transform="rotate(-90 10 666)" fill="#212121"/>
<rect x="20" y="646" width="10" height="10" transform="rotate(-90 20 646)" fill="#212121"/>
<rect width="10" height="10" transform="matrix(4.37114e-08 -1 -1 -4.37114e-08 780 646)" fill="#212121"/>
<rect x="20" y="130" width="10" height="10" fill="#212121"/>
<rect width="10" height="10" transform="matrix(-1 0 0 1 780 130)" fill="#212121"/>
<rect width="10" height="780" transform="matrix(3.40949e-07 -1 -1 -5.60402e-09 790 120)" fill="#212121"/>
<rect x="790" y="120" width="10" height="536" fill="#212121"/>
<path d="M53.5 169V158.5H74.5V211H64V169H53.5ZM85 221.5H95.5V200.5H106V221.5H95.5V232H85V221.5ZM116.5 200.5V169H127V158.5H158.5V169H169V200.5H158.5V211H127V200.5H116.5ZM127 200.09H158.5V169.41H127V200.09ZM179.5 200.5V169H190V158.5H221.5V169H232V200.5H221.5V211H190V200.5H179.5ZM190 200.09H221.5V169.41H190V200.09ZM242.5 200.5V169H253V158.5H284.5V169H295V200.5H284.5V211H253V200.5H242.5ZM253 200.09H284.5V169.41H253V200.09ZM305.5 221.5H316V200.5H326.5V221.5H316V232H305.5V221.5ZM337 200.5V169H347.5V158.5H379V169H389.5V200.5H379V211H347.5V200.5H337ZM347.5 200.09H379V169.41H347.5V200.09ZM400 200.5V169H410.5V158.5H442V169H452.5V200.5H442V211H410.5V200.5H400ZM410.5 200.09H442V169.41H410.5V200.09ZM463 200.5V169H473.5V158.5H505V169H515.5V200.5H505V211H473.5V200.5H463ZM473.5 200.09H505V169.41H473.5V200.09ZM526 221.5H536.5V200.5H547V221.5H536.5V232H526V221.5ZM557.5 200.5V169H568V158.5H599.5V169H610V200.5H599.5V211H568V200.5H557.5ZM568 200.09H599.5V169.41H568V200.09ZM620.5 200.5V169H631V158.5H662.5V169H673V200.5H662.5V211H631V200.5H620.5ZM631 200.09H662.5V169.41H631V200.09ZM683.5 200.5V169H694V158.5H725.5V169H736V200.5H725.5V211H694V200.5H683.5ZM694 200.09H725.5V169.41H694V200.09ZM211 253V242.5H263.5V253H242.5V295H232V253H211ZM274 284.5V253H284.5V242.5H316V253H326.5V284.5H316V295H284.5V284.5H274ZM284.5 284.09H316V253.41H284.5V284.09ZM337 295V242.5H347.5V263.5H368.5V253H379V242.5H389.5V253H379V263.5H368.5V274H379V284.5H389.5V295H379V284.5H368.5V274H347.5V295H337ZM400 295V242.5H452.5V253H410.5V263.5H442V274H410.5V284.5H452.5V295H400ZM463 295V242.5H473.5V253H484V263.5H494.5V274H505V242.5H515.5V295H505V284.5H494.5V274H484V263.5H473.5V295H463ZM526 295V284.5H568V274H536.5V263.5H526V253H536.5V242.5H578.5V253H536.5V263.5H568V274H578.5V284.5H568V295H526Z" fill="white"/>
<rect x="59" y="465" width="677" height="130" fill="#F9AB00"/>
<rect x="59" y="595" width="9.99999" height="130" transform="rotate(180 59 595)" fill="#DF7D00"/>
<rect x="59" y="605" width="10" height="677" transform="rotate(-90 59 605)" fill="#212121"/>
<rect x="69" y="585" width="10" height="10" transform="rotate(-90 69 585)" fill="#212121"/>
<rect width="10" height="10" transform="matrix(4.37114e-08 -1 -1 -4.37114e-08 726 585)" fill="#212121"/>
<rect x="69" y="475" width="10" height="10" fill="#212121"/>
<rect width="10" height="10" transform="matrix(-1 0 0 1 726 475)" fill="#212121"/>
<rect width="10" height="677" transform="matrix(2.95926e-07 -1 -1 -6.45663e-09 736 465)" fill="#DF7D00"/>
<rect x="736" y="465" width="10" height="130" fill="#212121"/>
<path d="M49 69V63H55V57H49V51H55V45H61V51H67V45H73V51H79V57H73V63H79V69H73V75H67V69H61V75H55V69H49ZM61 63H67V57H61V63ZM85 51V45H115V51H103V75H97V51H85ZM121 69V45H127V69H145V45H151V69H145V75H127V69H121ZM157 75V45H163V51H169V57H175V63H181V45H187V75H181V69H175V63H169V57H163V75H157ZM193 75V45H199V51H205V57H211V63H217V45H223V75H217V69H211V63H205V57H199V75H193ZM229 75V45H259V51H235V57H253V63H235V69H259V75H229ZM265 75V45H271V69H289V75H265Z" fill="#212121"/>
<path d="M217 345V339H229V369H223V345H217ZM235 363V345H241V339H259V345H265V363H259V369H241V363H235ZM241 362.766H259V345.234H241V362.766ZM271 363V345H277V339H295V345H301V363H295V369H277V363H271ZM277 362.766H295V345.234H277V362.766ZM307 369V363H313V357H319V351H325V345H331V339H337V345H331V351H325V357H319V363H313V369H307ZM307 345V339H313V345H307ZM331 369V363H337V369H331ZM361 369V339H367V363H385V369H361ZM391 369V339H397V369H391ZM403 363V345H409V339H427V345H433V363H427V369H433V375H427V369H409V363H403ZM409 362.766H427V345.234H409V362.766ZM439 363V339H445V363H463V339H469V363H463V369H445V363H439ZM475 369V339H481V369H475ZM487 369V339H511V345H517V363H511V369H487ZM493 363H510.766V345H493V363ZM523 369V339H529V369H523ZM535 345V339H565V345H553V369H547V345H535ZM571 345V339H577V345H583V351H589V345H595V339H601V345H595V351H589V369H583V351H577V345H571Z" fill="white"/>
<path d="M276 435V431.25H291V427.5H276V416.25H294.75V420H279.75V423.75H291V427.5H294.75V431.25H291V435H276ZM298.5 435V431.25H302.25V427.5H306V423.75H309.75V420H313.5V416.25H317.25V420H313.5V423.75H309.75V427.5H306V431.25H302.25V435H298.5ZM298.5 420V416.25H302.25V420H298.5ZM313.5 435V431.25H317.25V435H313.5ZM332.25 435V416.25H347.25V420H351V423.75H347.25V431.25H351V435H347.25V431.25H343.5V427.5H336V435H332.25ZM336 423.75H347.104V420H336V423.75ZM354.75 435V420H358.5V416.25H369.75V420H373.5V435H369.75V427.5H358.5V435H354.75ZM358.5 423.75H369.75V420.146H358.5V423.75ZM377.25 435V416.25H392.25V420H396V423.75H392.25V427.5H396V431.25H392.25V435H377.25ZM381 431.25H392.104V427.5H381V431.25ZM381 423.75H392.104V420H381V423.75ZM399.75 435V416.25H414.75V420H418.5V423.75H414.75V427.5H418.5V431.25H414.75V435H399.75ZM403.5 431.25H414.604V427.5H403.5V431.25ZM403.5 423.75H414.604V420H403.5V423.75ZM422.25 435V416.25H426V435H422.25ZM441 420V416.25H459.75V420H452.25V435H448.5V420H441ZM463.5 435V420H467.25V416.25H478.5V420H482.25V435H478.5V427.5H467.25V435H463.5ZM467.25 423.75H478.5V420.146H467.25V423.75ZM486 435V431.25H489.75V427.5H493.5V423.75H489.75V420H486V416.25H489.75V420H493.5V423.75H497.25V420H501V416.25H504.75V420H501V423.75H497.25V427.5H501V431.25H504.75V435H501V431.25H497.25V427.5H493.5V431.25H489.75V435H486ZM512.25 431.25V427.5H516V431.25H512.25ZM512.25 423.75V420H516V423.75H512.25Z" fill="white"/>
<path d="M168 503V499.25H175.5V518H171.75V503H168ZM179.25 518V514.25H183V510.5H186.75V506.75H190.5V503H194.25V499.25H198V503H194.25V506.75H190.5V510.5H186.75V514.25H183V518H179.25ZM179.25 503V499.25H183V503H179.25ZM194.25 518V514.25H198V518H194.25Z" fill="#212121"/>
<path d="M213 518V499.25H216.75V514.25H228V518H213ZM231.75 518V506.75H235.5V518H231.75ZM231.75 503V499.25H235.5V503H231.75ZM239.25 514.25V506.75H243V503H254.25V525.5H250.5V518H243V514.25H239.25ZM243 514.104H250.5V506.896H243V514.104ZM258 514.25V503H261.75V514.25H269.25V503H273V518H261.75V514.25H258ZM276.75 518V506.75H280.5V518H276.75ZM276.75 503V499.25H280.5V503H276.75ZM284.25 514.25V506.75H288V503H295.5V499.25H299.25V518H288V514.25H284.25ZM288.146 514.25H295.5V506.75H288.146V514.25ZM303 518V506.75H306.75V518H303ZM303 503V499.25H306.75V503H303ZM310.5 506.75V503H314.25V499.25H318V503H321.75V506.75H318V518H314.25V506.75H310.5ZM325.5 514.25V503H329.25V514.25H336.75V503H340.5V521.75H336.75V525.5H329.25V521.75H336.75V518H329.25V514.25H325.5ZM355.5 525.5V503H366.75V506.75H370.5V514.25H366.75V518H359.25V525.5H355.5ZM359.25 514.104H366.75V506.896H359.25V514.104ZM374.25 514.25V506.75H378V503H385.5V506.75H389.25V514.25H385.5V518H378V514.25H374.25ZM378 514.104H385.5V506.896H378V514.104ZM393 514.25V506.75H396.75V503H404.25V506.75H408V514.25H404.25V518H396.75V514.25H393ZM396.75 514.104H404.25V506.896H396.75V514.104ZM411.75 518V499.25H415.5V518H411.75Z" fill="white"/>
<path d="M480 518V510.5H483.75V506.75H495V503H480V499.25H495V503H498.75V510.5H483.75V514.25H498.75V518H480ZM502.5 518V514.25H506.25V510.5H510V506.75H513.75V503H517.5V499.25H521.25V503H517.5V506.75H513.75V510.5H510V514.25H506.25V518H502.5ZM502.5 503V499.25H506.25V503H502.5ZM517.5 518V514.25H521.25V518H517.5Z" fill="#212121"/>
<path d="M536.25 518V499.25H540V503H547.5V506.75H551.25V514.25H547.5V518H536.25ZM540 514.25H547.354V506.75H540V514.25ZM555 514.25V503H558.75V514.25H566.25V503H570V518H558.75V514.25H555ZM573.75 518V503H577.5V506.75H581.25V503H585V506.75H581.25V510.5H577.5V518H573.75ZM588.75 518V503H600V506.75H603.75V518H600V506.75H592.5V518H588.75ZM607.5 518V514.25H615V510.5H607.5V506.75H611.25V503H622.5V506.75H615V510.5H622.5V514.25H618.75V518H607.5Z" fill="white"/>
<path d="M159 553V549.25H166.5V568H162.75V553H159ZM170.25 568V564.25H174V560.5H177.75V556.75H181.5V553H185.25V549.25H189V553H185.25V556.75H181.5V560.5H177.75V564.25H174V568H170.25ZM170.25 553V549.25H174V553H170.25ZM185.25 568V564.25H189V568H185.25Z" fill="#212121"/>
<path d="M204 568V553H215.25V556.75H219V553H226.5V556.75H230.25V568H226.5V556.75H219V568H215.25V556.75H207.75V568H204ZM234 564.25V556.75H237.75V553H245.25V556.75H249V568H237.75V564.25H234ZM237.75 564.104H245.25V556.896H237.75V564.104ZM252.75 568V553H256.5V556.75H260.25V553H264V556.75H260.25V560.5H256.5V568H252.75ZM267.75 568V549.25H271.5V560.5H275.25V556.75H279V553H282.75V556.75H279V560.5H282.75V568H279V560.5H275.25V564.25H271.5V568H267.75ZM286.5 564.25V556.75H290.25V553H301.5V560.5H297.75V564.25H301.5V568H290.25V564.25H286.5ZM290.25 564.104H294V560.354H297.75V556.896H290.25V564.104ZM305.25 556.75V553H309V549.25H312.75V553H316.5V556.75H312.75V568H309V556.75H305.25ZM320.25 568V556.75H324V568H320.25ZM320.25 553V549.25H324V553H320.25ZM327.75 568V553H339V556.75H342.75V568H339V556.75H331.5V568H327.75ZM346.5 564.25V556.75H350.25V553H357.75V556.75H361.5V571.75H357.75V575.5H350.25V571.75H357.75V568H350.25V564.25H346.5ZM350.25 564.104H357.75V556.896H350.25V564.104Z" fill="white"/>
<path d="M426 553V549.25H433.5V568H429.75V553H426ZM437.25 568V564.25H441V560.5H444.75V556.75H448.5V553H452.25V549.25H456V553H452.25V556.75H448.5V560.5H444.75V564.25H441V568H437.25ZM437.25 553V549.25H441V553H437.25ZM452.25 568V564.25H456V568H452.25Z" fill="#212121"/>
<path d="M471 564.25V553H474.75V549.25H486V553H489.75V556.75H486V553H474.75V564.25H486V560.5H489.75V564.25H486V568H474.75V564.25H471ZM493.5 564.25V556.75H497.25V553H508.5V560.5H504.75V564.25H508.5V568H497.25V564.25H493.5ZM497.25 564.104H501V560.354H504.75V556.896H497.25V564.104ZM512.25 568V564.25H516V556.75H512.25V553H516V556.75H523.5V553H527.25V556.75H523.5V564.25H527.25V568H523.5V564.25H516V568H512.25ZM542.25 568V549.25H546V568H542.25ZM549.75 568V556.75H553.5V568H549.75ZM549.75 553V549.25H553.5V553H549.75ZM557.25 568V564.25H564.75V560.5H557.25V556.75H561V553H572.25V556.75H564.75V560.5H572.25V564.25H568.5V568H557.25ZM576 556.75V553H579.75V549.25H583.5V553H587.25V556.75H583.5V568H579.75V556.75H576ZM591 568V556.75H594.75V568H591ZM591 553V549.25H594.75V553H591ZM598.5 568V553H609.75V556.75H613.5V568H609.75V556.75H602.25V568H598.5ZM617.25 564.25V556.75H621V553H628.5V556.75H632.25V571.75H628.5V575.5H621V571.75H628.5V568H621V564.25H617.25ZM621 564.104H628.5V556.896H621V564.104Z" fill="white"/>
<path d="M500.75 54.25V50.5H504.5V54.25H512V39.25H515.75V54.25H512V58H504.5V54.25H500.75ZM519.5 58V39.25H538.25V43H523.25V46.75H534.5V50.5H523.25V54.25H538.25V58H519.5ZM542 54.25V39.25H545.75V54.25H553.25V39.25H557V54.25H564.5V39.25H568.25V54.25H564.5V58H557V54.25H553.25V58H545.75V54.25H542ZM572 58V39.25H575.75V58H572ZM579.5 58V54.25H594.5V50.5H583.25V46.75H579.5V43H583.25V39.25H598.25V43H583.25V46.75H594.5V50.5H598.25V54.25H594.5V58H579.5ZM602 58V39.25H605.75V46.75H617V39.25H620.75V58H617V50.5H605.75V58H602ZM635.75 43V39.25H654.5V43H647V58H643.25V43H635.75ZM658.25 54.25V39.25H662V54.25H673.25V39.25H677V54.25H673.25V58H662V54.25H658.25ZM680.75 58V39.25H684.5V43H688.25V46.75H692V50.5H695.75V39.25H699.5V58H695.75V54.25H692V50.5H688.25V46.75H684.5V58H680.75ZM703.25 58V39.25H707V43H710.75V46.75H714.5V50.5H718.25V39.25H722V58H718.25V54.25H714.5V50.5H710.75V46.75H707V58H703.25ZM725.75 58V39.25H744.5V43H729.5V46.75H740.75V50.5H729.5V54.25H744.5V58H725.75ZM748.25 58V39.25H752V54.25H763.25V58H748.25Z" fill="white"/>
</svg>
