<svg width="1010" height="184" viewBox="0 0 1010 184" fill="none" xmlns="http://www.w3.org/2000/svg">
<path d="M10 159V134H110V109H35V84H10V59H35V34H60V9H85V34H135V59H35V84H110V109H135V134H110V159H85V184H60V159H10Z" fill="#212121"/>
<path d="M160 59V34H285V59H235V159H210V59H160Z" fill="#212121"/>
<path d="M310 134V34H335V134H410V34H435V134H410V159H335V134H310Z" fill="#212121"/>
<path d="M460 159V34H485V59H510V84H535V109H560V34H585V159H560V134H535V109H510V84H485V159H460Z" fill="#212121"/>
<path d="M610 159V34H635V59H660V84H685V109H710V34H735V159H710V134H685V109H660V84H635V159H610Z" fill="#212121"/>
<path d="M760 159V34H885V59H785V84H860V109H785V134H885V159H760Z" fill="#212121"/>
<path d="M910 159V34H935V134H1010V159H910Z" fill="#212121"/>
<path d="M0 150V125H100V100H25V75H0V50H25V25H50V0H75V25H125V50H25V75H100V100H125V125H100V150H75V175H50V150H0Z" fill="white"/>
<path d="M150 50V25H275V50H225V150H200V50H150Z" fill="white"/>
<path d="M300 125V25H325V125H400V25H425V125H400V150H325V125H300Z" fill="white"/>
<path d="M450 150V25H475V50H500V75H525V100H550V25H575V150H550V125H525V100H500V75H475V150H450Z" fill="white"/>
<path d="M600 150V25H625V50H650V75H675V100H700V25H725V150H700V125H675V100H650V75H625V150H600Z" fill="white"/>
<path d="M750 150V25H875V50H775V75H850V100H775V125H875V150H750Z" fill="white"/>
<path d="M900 150V25H925V125H1000V150H900Z" fill="white"/>
</svg>
